# xmcd
#
# Track frame offsets:
#	150
#	13632
#	28478
#	47366
#	66907
#	82789
#	97631
#	115049
#	131092
#	149402
#	167665
#	183236
#	198890
#	222048
#	235500
#	250798
#	267623
#	290468
#
# Disc length: 4161 seconds
#
# Revision: 1
# Processed by: cddbd v1.5.2PL0 Copyright (c) Steve Scherf et al.
# Submitted via: audiograbber 1.83.01
#
DISCID=f1103f12
DTITLE=Erinevad - Kuldsed Eesti Shlaagrid - Kogumik Vol.1
DYEAR=2009
DGENRE=Ðlaager
TTITLE0=Anne Veski - Ära Tagasi Vaata Sa
TTITLE1=Erich Krieger and Mari-Liis - Tuhandeid Soove
TTITLE2=Toomas Anni - Nii Kuis Üks Pääsuke
TTITLE3=Vello Orumets - Edasi
TTITLE4=Peeter Kaljuste - Reekviem
TTITLE5=Kalevi Mehed - Aurik Viljandist
TTITLE6=Inga - Käisin Mööda Hiiumaad
TTITLE7=Shlaagerband - Oi Aegu Ammuseid
TTITLE8=Ardo Juhkov - Maskeraad
TTITLE9=Anmatino - Kahte Südant
TTITLE10=Meribel Müürsepp - Et Oleks Rahu
TTITLE11=Ergo and Christa - Ainus Mida Soovin
TTITLE12=Viljo Tamm Bänd - Laugaste Pääl On Jää
TTITLE13=Armin - Kui Päike Vaatab
TTITLE14=AM2 - Igavesti Koos
TTITLE15=Jüri Homenja - Conchita Gonzalez
TTITLE16=Raid "Richie" Liiver - Hetkeks Vaid Peatub Aeg
TTITLE17=Jaak Lutsoja feat. Romantiline Akordion - Puudutus
EXTD=
EXTT0=
EXTT1=
EXTT2=
EXTT3=
EXTT4=
EXTT5=
EXTT6=
EXTT7=
EXTT8=
EXTT9=
EXTT10=
EXTT11=
EXTT12=
EXTT13=
EXTT14=
EXTT15=
EXTT16=
EXTT17=
PLAYORDER=
